<svg width="32" height="29" viewBox="0 0 32 29" fill="none" xmlns="http://www.w3.org/2000/svg">
<path d="M6.66665 22.9582C6.28887 22.9582 5.97198 22.8422 5.71598 22.6102C5.45998 22.3782 5.33243 22.0914 5.33332 21.7498C5.33332 21.4075 5.46132 21.1203 5.71732 20.8883C5.97332 20.6563 6.28976 20.5407 6.66665 20.5415H7.99998V12.0832C7.99998 10.4116 8.55554 8.9262 9.66665 7.62684C10.7778 6.32748 12.2222 5.47681 14 5.07484V4.22901C14 3.72553 14.1947 3.29738 14.584 2.94455C14.9733 2.59172 15.4453 2.4157 16 2.41651C16.5555 2.41651 17.028 2.59292 17.4173 2.94576C17.8067 3.29859 18.0009 3.72634 18 4.22901V5.07484C19.7778 5.47762 21.2222 6.32869 22.3333 7.62805C23.4444 8.92741 24 10.4125 24 12.0832V20.5415H25.3333C25.7111 20.5415 26.028 20.6575 26.284 20.8895C26.54 21.1215 26.6675 21.4083 26.6667 21.7498C26.6667 22.0922 26.5387 22.3794 26.2827 22.6114C26.0267 22.8434 25.7102 22.959 25.3333 22.9582H6.66665ZM16 26.5832C15.2667 26.5832 14.6387 26.3463 14.116 25.8727C13.5933 25.399 13.3324 24.8303 13.3333 24.1665H18.6667C18.6667 24.8311 18.4053 25.4002 17.8827 25.8739C17.36 26.3475 16.7324 26.584 16 26.5832ZM10.6667 20.5415H21.3333V12.0832C21.3333 10.754 20.8111 9.61616 19.7667 8.66963C18.7222 7.7231 17.4667 7.24984 16 7.24984C14.5333 7.24984 13.2778 7.7231 12.2333 8.66963C11.1889 9.61616 10.6667 10.754 10.6667 12.0832V20.5415Z" fill="#003D73"/>
</svg>
