<svg width="23" height="23" viewBox="0 0 23 23" fill="none" xmlns="http://www.w3.org/2000/svg">
<path d="M16.675 0C14.674 0 12.7535 1.01526 11.5 2.61962C10.2465 1.01526 8.326 0 6.325 0C2.783 0 0 3.03324 0 6.89373C0 11.6316 3.91 15.4921 9.8325 21.358L11.5 23L13.1675 21.3455C19.09 15.4921 23 11.6316 23 6.89373C23 3.03324 20.217 0 16.675 0ZM11.615 19.4905L11.5 19.6158L11.385 19.4905C5.911 14.0883 2.3 10.5161 2.3 6.89373C2.3 4.38692 4.025 2.50681 6.325 2.50681C8.096 2.50681 9.821 3.74768 10.4305 5.46485H12.581C13.179 3.74768 14.904 2.50681 16.675 2.50681C18.975 2.50681 20.7 4.38692 20.7 6.89373C20.7 10.5161 17.089 14.0883 11.615 19.4905Z" fill="#003D73"/>
</svg>
