<!DOCTYPE svg PUBLIC "-//W3C//DTD SVG 1.1//EN" "http://www.w3.org/Graphics/SVG/1.1/DTD/svg11.dtd">
<!-- Uploaded to: SVG Repo, www.svgrepo.com, Transformed by: SVG Repo Mixer Tools -->
<svg fill="#ffffff" version="1.1" id="Capa_1" xmlns="http://www.w3.org/2000/svg" xmlns:xlink="http://www.w3.org/1999/xlink" width="800px" height="800px" viewBox="0 0 30.602 30.602" xml:space="preserve" stroke="#ffffff">
<g id="SVGRepo_bgCarrier" stroke-width="0"/>
<g id="SVGRepo_tracerCarrier" stroke-linecap="round" stroke-linejoin="round"/>
<g id="SVGRepo_iconCarrier"> <g> <path d="M24.552,24.691c-0.082-0.322-0.13-0.729,0.008-1.039c0.045-0.103,0.184-0.414,0.874-0.604l1.032-0.284l-0.446-0.975 c-1.087-2.369-0.084-6.596,0.063-7.001c-0.009,0.025-0.019,0.043-0.024,0.055c0.021-0.042,1.771-4.52-3.737-9.172 c-2.363-1.996-3.257-2.439-3.848-2.732c-0.485-0.24-0.706-0.35-1.968-1.839L15.578,0l-0.595,1.312 c-0.777,1.713-0.796,2.938-0.617,3.736c-0.622,0.231-1.484,0.582-2.391,1.042c-2.358,1.198-3.848,2.538-4.433,3.986 c-1.385,1.884-3.189,2.732-3.204,2.74L4.271,12.85c-0.298,0.166-0.632,0.517-0.679,1.004c-0.024,0.247,0.014,0.727,0.531,1.162 l0.062,0.048c0.016,0.011,1.604,1.14,2.434,2.384c0.376,0.562,0.923,0.874,1.541,0.874c0.497,0,0.885-0.207,1.012-0.284 c0.717-0.41,2.574-1.343,4.073-1.661c-3.473,3.034-4.316,6.193-4.412,8.314H7.021v5.91h19.995v-5.91H24.552z M16.008,16.538 l0.922-0.637l-0.812-0.773c-0.476-0.453-1.138-0.682-1.97-0.682c-2.362,0-5.754,1.936-5.898,2.018l0.004-0.009L8.22,16.48 c-0.013,0.006-0.028,0.012-0.04,0.015c-0.011-0.011-0.026-0.029-0.045-0.058c-0.658-0.987-1.639-1.868-2.276-2.385 c0.816-0.504,2.135-1.474,3.231-3.007l0.072-0.101l0.043-0.116c0.792-2.162,5.063-3.883,6.641-4.364l1.652-0.412l-1.231-1.066 c-0.058-0.098-0.287-0.563-0.095-1.524c0.65,0.671,0.988,0.859,1.494,1.11c0.513,0.254,1.287,0.638,3.481,2.491 c4.321,3.651,3.272,6.98,3.261,7.013c0.008-0.022,0.017-0.038,0.021-0.049c-0.146,0.294-1.304,4.474-0.391,7.638 c-0.638,0.371-0.971,0.855-1.146,1.25c-0.269,0.605-0.28,1.239-0.2,1.775H10.653C10.854,20.703,14.039,17.9,16.008,16.538z M25.191,28.779H8.843v-2.264h0.043h16.305V28.779z"/> </g> </g>
</svg>