<svg width="23" height="24" viewBox="0 0 23 24" fill="none" xmlns="http://www.w3.org/2000/svg">
<path d="M16.675 0.0117188C14.674 0.0117188 12.7535 1.02698 11.5 2.63134C10.2465 1.02698 8.326 0.0117188 6.325 0.0117188C2.783 0.0117188 0 3.04496 0 6.90545C0 11.6433 3.91 15.5038 9.8325 21.3698L11.5 23.0117L13.1675 21.3572C19.09 15.5038 23 11.6433 23 6.90545C23 3.04496 20.217 0.0117188 16.675 0.0117188ZM11.615 19.5022L11.5 19.6275L11.385 19.5022C5.911 14.1 2.3 10.5278 2.3 6.90545C2.3 4.39864 4.025 2.51853 6.325 2.51853C8.096 2.51853 9.821 3.7594 10.4305 5.47657H12.581C13.179 3.7594 14.904 2.51853 16.675 2.51853C18.975 2.51853 20.7 4.39864 20.7 6.90545C20.7 10.5278 17.089 14.1 11.615 19.5022Z" fill="#003D73"/>
</svg>
