<svg width="23" height="26" viewBox="0 0 23 26" fill="none" xmlns="http://www.w3.org/2000/svg">
<path d="M21.6656 24.7845C21.6656 24.6822 21.6141 24.5841 21.5223 24.5118C21.4305 24.4394 21.306 24.3988 21.1762 24.3988H3.5563C3.4265 24.3988 3.30201 24.4394 3.21022 24.5118C3.11843 24.5841 3.06686 24.6822 3.06686 24.7845C3.06686 24.8869 3.11843 24.985 3.21022 25.0573C3.30201 25.1297 3.4265 25.1703 3.5563 25.1703H21.1762C21.306 25.1703 21.4305 25.1297 21.5223 25.0573C21.6141 24.985 21.6656 24.8869 21.6656 24.7845ZM1.37731 7.69886C0.968139 7.91334 0.347527 8.56603 0.935836 9.49337C1.4243 10.2626 2.44331 11.2038 3.52694 11.4522C3.78739 11.5165 4.06227 11.5363 4.3332 11.5103C4.60413 11.4842 4.86488 11.4128 5.09804 11.301C6.17384 10.7934 7.44443 10.1067 7.98281 9.81201C8.66216 10.0828 9.51966 10.1391 10.3909 9.96245L10.4026 9.95936C10.3517 11.2331 9.80451 12.0285 7.12923 13.9866C4.74467 15.731 3.33018 18.0223 3.34389 20.117C3.35368 21.491 3.98897 22.6706 5.18419 23.5262C5.27425 23.5912 5.39194 23.6273 5.51407 23.6273H19.2184C19.3482 23.6273 19.4727 23.5867 19.5645 23.5143C19.6563 23.442 19.7079 23.3439 19.7079 23.2415C19.7079 23.1392 19.6563 23.0411 19.5645 22.9688C19.4727 22.8964 19.3482 22.8558 19.2184 22.8558H5.70887C4.80927 22.1576 4.33158 21.2125 4.32375 20.1131C4.31102 18.26 5.6423 16.1283 7.79584 14.5521C10.6493 12.4644 11.3874 11.4754 11.3874 9.74026C11.3874 9.71701 11.38 9.69586 11.3725 9.67464C11.3699 9.66698 11.3672 9.65931 11.3649 9.65153C11.9003 9.42394 12.3633 9.12305 12.6795 8.7589C13.0759 8.30372 13.9295 7.13489 13.2962 6.10031C13.2682 6.05472 13.229 6.01392 13.181 5.98025C13.133 5.94658 13.077 5.9207 13.0163 5.90408C12.9556 5.88746 12.8913 5.88042 12.8271 5.88338C12.7629 5.88634 12.7001 5.89923 12.6423 5.92132C12.5844 5.94341 12.5327 5.97426 12.49 6.01211C12.4472 6.04996 12.4144 6.09407 12.3933 6.14193C12.3722 6.18979 12.3633 6.24045 12.3671 6.29102C12.3708 6.34159 12.3872 6.39109 12.4152 6.43668C12.7 6.9019 12.4974 7.60705 11.8729 8.32301C11.5127 8.73653 10.8686 9.07059 10.1491 9.21563C9.41785 9.36299 8.72285 9.29818 8.2383 9.03664C8.15587 8.99213 8.05813 8.96856 7.95821 8.96912C7.8583 8.96967 7.76099 8.99431 7.67936 9.03973C7.67827 9.0403 7.67073 9.04446 7.65723 9.0519C7.45123 9.16543 5.85723 10.044 4.59686 10.6398C4.47912 10.6969 4.34695 10.733 4.20963 10.7455C4.07231 10.7581 3.93317 10.7467 3.802 10.7123C3.04435 10.538 2.21132 9.77729 1.81291 9.14928C1.49086 8.64164 1.82075 8.39938 1.97051 8.31298C5.34472 6.01621 7.03819 3.62996 7.10769 3.52889C7.1399 3.48219 7.15964 3.43079 7.1657 3.37785C7.17176 3.32491 7.16401 3.27155 7.14293 3.22106C6.9312 2.70608 6.75475 2.1825 6.61433 1.6526C7.63824 2.13864 9.39925 2.81756 11.2327 2.81756C13.7817 2.81756 19.7079 3.56747 19.7079 10.5141C19.7079 10.5519 19.6991 14.3284 17.7795 18.4814C17.7567 18.5291 17.7462 18.58 17.7486 18.631C17.751 18.6819 17.7661 18.732 17.7932 18.7784C17.8203 18.8247 17.8588 18.8663 17.9065 18.9008C17.9541 18.9354 18.01 18.9621 18.0708 18.9795C18.1317 18.9969 18.1963 19.0046 18.2609 19.0022C18.3256 18.9998 18.389 18.9873 18.4475 18.9654C18.5059 18.9436 18.5583 18.9128 18.6016 18.8748C18.6449 18.8369 18.6782 18.7926 18.6996 18.7445C20.6779 14.4642 20.6877 10.6699 20.6867 10.5118C20.6867 2.65555 13.4499 2.04529 11.2327 2.04529C8.77668 2.04529 6.32654 0.577122 6.30305 0.561692C6.23001 0.518307 6.14318 0.491673 6.05215 0.484729C5.96111 0.477786 5.86942 0.490804 5.78718 0.522345C5.70529 0.554149 5.63631 0.60337 5.58805 0.664448C5.53979 0.725526 5.51416 0.796025 5.51407 0.867978C5.51407 1.62482 5.96925 2.8492 6.14643 3.2959C5.73725 3.8344 4.12406 5.8272 1.37731 7.69886Z" fill="#003D73"/>
<path d="M21.6656 24.7845C21.6656 24.6822 21.6141 24.5841 21.5223 24.5118C21.4305 24.4394 21.306 24.3988 21.1762 24.3988H3.5563C3.4265 24.3988 3.30201 24.4394 3.21022 24.5118C3.11843 24.5841 3.06686 24.6822 3.06686 24.7845C3.06686 24.8869 3.11843 24.985 3.21022 25.0573C3.30201 25.1297 3.4265 25.1703 3.5563 25.1703H21.1762C21.306 25.1703 21.4305 25.1297 21.5223 25.0573C21.6141 24.985 21.6656 24.8869 21.6656 24.7845ZM1.37731 7.69886C0.968139 7.91334 0.347527 8.56603 0.935836 9.49337C1.4243 10.2626 2.44331 11.2038 3.52694 11.4522C3.78739 11.5165 4.06227 11.5363 4.3332 11.5103C4.60413 11.4842 4.86488 11.4128 5.09804 11.301C6.17384 10.7934 7.44443 10.1067 7.98281 9.81201C8.66216 10.0828 9.51966 10.1391 10.3909 9.96245L10.4026 9.95936C10.3517 11.2331 9.80451 12.0285 7.12923 13.9866C4.74467 15.731 3.33018 18.0223 3.34389 20.117C3.35368 21.491 3.98897 22.6706 5.18419 23.5262C5.27425 23.5912 5.39194 23.6273 5.51407 23.6273H19.2184C19.3482 23.6273 19.4727 23.5867 19.5645 23.5143C19.6563 23.442 19.7079 23.3439 19.7079 23.2415C19.7079 23.1392 19.6563 23.0411 19.5645 22.9688C19.4727 22.8964 19.3482 22.8558 19.2184 22.8558H5.70887C4.80927 22.1576 4.33158 21.2125 4.32375 20.1131C4.31102 18.26 5.6423 16.1283 7.79584 14.5521C10.6493 12.4644 11.3874 11.4754 11.3874 9.74026C11.3874 9.71701 11.38 9.69586 11.3725 9.67464C11.3699 9.66698 11.3672 9.65931 11.3649 9.65153C11.9003 9.42394 12.3633 9.12305 12.6795 8.7589C13.0759 8.30372 13.9295 7.13489 13.2962 6.10031C13.2682 6.05472 13.229 6.01392 13.181 5.98025C13.133 5.94658 13.077 5.9207 13.0163 5.90408C12.9556 5.88746 12.8913 5.88042 12.8271 5.88338C12.7629 5.88634 12.7001 5.89923 12.6423 5.92132C12.5844 5.94341 12.5327 5.97426 12.49 6.01211C12.4472 6.04996 12.4144 6.09407 12.3933 6.14193C12.3722 6.18979 12.3633 6.24045 12.3671 6.29102C12.3708 6.34159 12.3872 6.39109 12.4152 6.43668C12.7 6.9019 12.4974 7.60705 11.8729 8.32301C11.5127 8.73653 10.8686 9.07059 10.1491 9.21563C9.41785 9.36299 8.72285 9.29818 8.2383 9.03664C8.15587 8.99213 8.05813 8.96856 7.95821 8.96912C7.8583 8.96967 7.76099 8.99431 7.67936 9.03973C7.67827 9.0403 7.67073 9.04446 7.65723 9.0519C7.45123 9.16543 5.85723 10.044 4.59686 10.6398C4.47912 10.6969 4.34695 10.733 4.20963 10.7455C4.07231 10.7581 3.93317 10.7467 3.802 10.7123C3.04435 10.538 2.21132 9.77729 1.81291 9.14928C1.49086 8.64164 1.82075 8.39938 1.97051 8.31298C5.34472 6.01621 7.03819 3.62996 7.10769 3.52889C7.1399 3.48219 7.15964 3.43079 7.1657 3.37785C7.17176 3.32491 7.16401 3.27155 7.14293 3.22106C6.9312 2.70608 6.75475 2.1825 6.61433 1.6526C7.63824 2.13864 9.39925 2.81756 11.2327 2.81756C13.7817 2.81756 19.7079 3.56747 19.7079 10.5141C19.7079 10.5519 19.6991 14.3284 17.7795 18.4814C17.7567 18.5291 17.7462 18.58 17.7486 18.631C17.751 18.6819 17.7661 18.732 17.7932 18.7784C17.8203 18.8247 17.8588 18.8663 17.9065 18.9008C17.9541 18.9354 18.01 18.9621 18.0708 18.9795C18.1317 18.9969 18.1963 19.0046 18.2609 19.0022C18.3256 18.9998 18.389 18.9873 18.4475 18.9654C18.5059 18.9436 18.5583 18.9128 18.6016 18.8748C18.6449 18.8369 18.6782 18.7926 18.6996 18.7445C20.6779 14.4642 20.6877 10.6699 20.6867 10.5118C20.6867 2.65555 13.4499 2.04529 11.2327 2.04529C8.77668 2.04529 6.32654 0.577122 6.30305 0.561692C6.23001 0.518307 6.14318 0.491673 6.05215 0.484729C5.96111 0.477786 5.86942 0.490804 5.78718 0.522345C5.70529 0.554149 5.63631 0.60337 5.58805 0.664448C5.53979 0.725526 5.51416 0.796025 5.51407 0.867978C5.51407 1.62482 5.96925 2.8492 6.14643 3.2959C5.73725 3.8344 4.12406 5.8272 1.37731 7.69886Z" stroke="#003D73"/>
<path d="M17.246 1.66956C15.6788 0.837108 13.9266 0.481445 11.3874 0.481445C11.2576 0.481445 11.1331 0.522087 11.0413 0.594429C10.9495 0.666772 10.8979 0.764889 10.8979 0.867197C10.8979 0.969504 10.9495 1.06762 11.0413 1.13996C11.1331 1.21231 11.2576 1.25295 11.3874 1.25295C13.7171 1.25295 15.3059 1.56849 16.6998 2.30913C18.9649 3.51422 21.6657 5.91514 21.6657 10.511C21.6657 11.6304 21.6657 13.1634 20.7015 16.2039C20.6734 16.3022 20.6952 16.4053 20.7623 16.491C20.8294 16.5768 20.9364 16.6385 21.0605 16.6629C21.1845 16.6873 21.3158 16.6724 21.4261 16.6215C21.5365 16.5707 21.6172 16.4878 21.651 16.3906C22.6445 13.2591 22.6445 11.6705 22.6445 10.511C22.6445 5.57645 19.7089 2.9788 17.246 1.66956Z" fill="#003D73"/>
<path d="M17.246 1.66956C15.6788 0.837108 13.9266 0.481445 11.3874 0.481445C11.2576 0.481445 11.1331 0.522087 11.0413 0.594429C10.9495 0.666772 10.8979 0.764889 10.8979 0.867197C10.8979 0.969504 10.9495 1.06762 11.0413 1.13996C11.1331 1.21231 11.2576 1.25295 11.3874 1.25295C13.7171 1.25295 15.3059 1.56849 16.6998 2.30913C18.9649 3.51422 21.6657 5.91514 21.6657 10.511C21.6657 11.6304 21.6657 13.1634 20.7015 16.2039C20.6734 16.3022 20.6952 16.4053 20.7623 16.491C20.8294 16.5768 20.9364 16.6385 21.0605 16.6629C21.1845 16.6873 21.3158 16.6724 21.4261 16.6215C21.5365 16.5707 21.6172 16.4878 21.651 16.3906C22.6445 13.2591 22.6445 11.6705 22.6445 10.511C22.6445 5.57645 19.7089 2.9788 17.246 1.66956Z" stroke="#003D73"/>
</svg>
