<svg width="28" height="29" viewBox="0 0 28 29" fill="none" xmlns="http://www.w3.org/2000/svg">
<path d="M26.6688 12.4977C26.287 9.60149 25.0127 6.91799 23.0423 4.86051C21.0719 2.80303 18.5146 1.4857 15.7643 1.1114C13.3082 0.774391 10.8123 1.20596 8.58694 2.35247C6.36154 3.49898 4.50477 5.30986 3.24744 7.56001M1.69434 15.7895C2.05544 18.5301 3.21628 21.0843 5.0159 23.098C6.81552 25.1117 9.16474 26.485 11.7378 27.0277C14.3109 27.5703 16.9804 27.2553 19.3761 26.1264C21.7717 24.9974 23.775 23.1105 25.1079 20.7271" stroke="#003D73" stroke-width="2" stroke-linecap="round" stroke-linejoin="round"/>
<path d="M23.547 20.7271C23.547 21.1636 23.7115 21.5823 24.0042 21.8909C24.2969 22.1996 24.694 22.373 25.1079 22.373C25.5219 22.373 25.9189 22.1996 26.2117 21.8909C26.5044 21.5823 26.6688 21.1636 26.6688 20.7271C26.6688 20.2906 26.5044 19.8719 26.2117 19.5633C25.9189 19.2546 25.5219 19.0812 25.1079 19.0812C24.694 19.0812 24.2969 19.2546 24.0042 19.5633C23.7115 19.8719 23.547 20.2906 23.547 20.7271ZM1.69434 7.55995C1.69434 7.99647 1.85879 8.41511 2.15152 8.72378C2.44424 9.03244 2.84126 9.20585 3.25524 9.20585C3.66922 9.20585 4.06624 9.03244 4.35897 8.72378C4.6517 8.41511 4.81615 7.99647 4.81615 7.55995C4.81615 7.12344 4.6517 6.7048 4.35897 6.39613C4.06624 6.08747 3.66922 5.91406 3.25524 5.91406C2.84126 5.91406 2.44424 6.08747 2.15152 6.39613C1.85879 6.7048 1.69434 7.12344 1.69434 7.55995ZM9.49887 14.1435C9.49887 15.4531 9.99222 16.709 10.8704 17.635C11.7486 18.561 12.9397 19.0812 14.1816 19.0812C15.4235 19.0812 16.6146 18.561 17.4928 17.635C18.371 16.709 18.8643 15.4531 18.8643 14.1435C18.8643 12.834 18.371 11.5781 17.4928 10.6521C16.6146 9.72606 15.4235 9.20585 14.1816 9.20585C12.9397 9.20585 11.7486 9.72606 10.8704 10.6521C9.99222 11.5781 9.49887 12.834 9.49887 14.1435Z" stroke="#003D73" stroke-width="2" stroke-linecap="round" stroke-linejoin="round"/>
</svg>
