<svg width="23" height="25" viewBox="0 0 23 25" fill="none" xmlns="http://www.w3.org/2000/svg">
<path d="M14.5833 2.8125C14.5833 4.5 12.8333 9.5625 12.8333 9.5625H10.5C10.5 9.5625 8.75 4.5 8.75 2.8125C8.75 2.06658 9.05729 1.35121 9.60427 0.823762C10.1513 0.296316 10.8931 0 11.6667 0C12.4402 0 13.1821 0.296316 13.7291 0.823762C14.276 1.35121 14.5833 2.06658 14.5833 2.8125ZM11.6667 11.25C10.3833 11.25 9.33333 12.2625 9.33333 13.5C9.33333 14.7375 10.3833 15.75 11.6667 15.75C12.95 15.75 14 14.7375 14 13.5C14 12.2625 12.95 11.25 11.6667 11.25ZM16.4267 5.74875C16.6367 4.905 16.8117 4.095 16.8817 3.43125C18.8214 4.36534 20.4527 5.80236 21.5923 7.58095C22.732 9.35955 23.3349 11.4093 23.3333 13.5C23.3333 19.71 18.1067 24.75 11.6667 24.75C5.22667 24.75 0 19.71 0 13.5C0 9.09 2.625 5.27625 6.45167 3.43125C6.53333 4.095 6.69667 4.91625 6.90667 5.74875C5.5139 6.54864 4.36029 7.68342 3.55865 9.0421C2.75702 10.4008 2.33481 11.9368 2.33333 13.5C2.33333 18.4725 6.51 22.5 11.6667 22.5C16.8233 22.5 21 18.4725 21 13.5C21 10.2037 19.1567 7.32375 16.4267 5.74875ZM18.6667 13.5C18.6667 17.2237 15.5283 20.25 11.6667 20.25C7.805 20.25 4.66667 17.2237 4.66667 13.5C4.66667 11.25 5.81 9.25875 7.56 8.0325C7.82833 8.94375 8.31833 10.3613 8.31833 10.3613C7.50167 11.1713 7 12.285 7 13.5C7 15.9863 9.08833 18 11.6667 18C14.245 18 16.3333 15.9863 16.3333 13.5C16.3333 12.285 15.8317 11.1713 15.015 10.3613C15.015 10.3613 15.4933 8.98875 15.7733 8.0325C16.6696 8.65834 17.3991 9.48021 17.902 10.4306C18.405 11.3811 18.667 12.433 18.6667 13.5Z" fill="#003D73"/>
</svg>
