<svg width="25" height="24" viewBox="0 0 25 24" fill="none" xmlns="http://www.w3.org/2000/svg">
<path d="M9.63542 22L9.21875 18.8C8.99306 18.7167 8.78021 18.6167 8.58021 18.5C8.38021 18.3833 8.18507 18.2583 7.99479 18.125L4.89583 19.375L2.03125 14.625L4.71354 12.675C4.69618 12.5583 4.6875 12.4457 4.6875 12.337V11.663C4.6875 11.5543 4.69618 11.4417 4.71354 11.325L2.03125 9.375L4.89583 4.625L7.99479 5.875C8.18576 5.74167 8.38542 5.61667 8.59375 5.5C8.80208 5.38333 9.01042 5.28333 9.21875 5.2L9.63542 2H15.3646L15.7812 5.2C16.0069 5.28333 16.2198 5.38333 16.4198 5.5C16.6198 5.61667 16.8149 5.74167 17.0052 5.875L20.1042 4.625L22.9687 9.375L20.2865 11.325C20.3038 11.4417 20.3125 11.5543 20.3125 11.663V12.337C20.3125 12.4457 20.2951 12.5583 20.2604 12.675L22.9427 14.625L20.0781 19.375L17.0052 18.125C16.8142 18.2583 16.6146 18.3833 16.4062 18.5C16.1979 18.6167 15.9896 18.7167 15.7812 18.8L15.3646 22H9.63542ZM11.4583 20H13.5156L13.8802 17.35C14.4184 17.2167 14.9177 17.0207 15.3781 16.762C15.8385 16.5033 16.2594 16.191 16.6406 15.825L19.2188 16.85L20.2344 15.15L17.9948 13.525C18.0816 13.2917 18.1424 13.046 18.1771 12.788C18.2118 12.53 18.2292 12.2673 18.2292 12C18.2292 11.7333 18.2118 11.471 18.1771 11.213C18.1424 10.955 18.0816 10.709 17.9948 10.475L20.2344 8.85L19.2188 7.15L16.6406 8.2C16.2587 7.81667 15.8378 7.496 15.3781 7.238C14.9184 6.98 14.4191 6.784 13.8802 6.65L13.5417 4H11.4844L11.1198 6.65C10.5816 6.78333 10.0826 6.97933 9.62292 7.238C9.16319 7.49667 8.74201 7.809 8.35937 8.175L5.78125 7.15L4.76562 8.85L7.00521 10.45C6.9184 10.7 6.85764 10.95 6.82292 11.2C6.78819 11.45 6.77083 11.7167 6.77083 12C6.77083 12.2667 6.78819 12.525 6.82292 12.775C6.85764 13.025 6.9184 13.275 7.00521 13.525L4.76562 15.15L5.78125 16.85L8.35937 15.8C8.74132 16.1833 9.1625 16.5043 9.62292 16.763C10.0833 17.0217 10.5823 17.2173 11.1198 17.35L11.4583 20ZM12.5 16C12.7951 16 13.0427 15.904 13.2427 15.712C13.4427 15.52 13.5424 15.2827 13.5417 15C13.5417 14.7167 13.4417 14.479 13.2417 14.287C13.0417 14.095 12.7944 13.9993 12.5 14C12.2049 14 11.9573 14.096 11.7573 14.288C11.5573 14.48 11.4576 14.7173 11.4583 15C11.4583 15.2833 11.5583 15.521 11.7583 15.713C11.9583 15.905 12.2056 16.0007 12.5 16ZM11.4583 13H13.5417V8H11.4583V13Z" fill="#003D73"/>
</svg>
