<?xml version="1.0" standalone="no"?>
<!DOCTYPE svg PUBLIC "-//W3C//DTD SVG 20010904//EN"
 "http://www.w3.org/TR/2001/REC-SVG-20010904/DTD/svg10.dtd">
<svg version="1.0" xmlns="http://www.w3.org/2000/svg"
 width="512.000000pt" height="512.000000pt" viewBox="0 0 512.000000 512.000000"
 preserveAspectRatio="xMidYMid meet">

<g transform="translate(0.000000,512.000000) scale(0.100000,-0.100000)"
fill="#000000" stroke="none">
<path d="M901 4230 c-317 -269 -496 -413 -520 -421 -70 -22 -164 -82 -222
-141 -66 -67 -129 -185 -148 -276 -8 -37 -11 -557 -11 -1722 l0 -1670 80 0 80
0 0 1441 0 1442 33 -27 c58 -47 152 -95 220 -113 l67 -18 0 -527 0 -528 80 0
80 0 0 528 0 528 52 13 c72 19 163 65 221 113 l47 39 0 -1445 0 -1446 80 0 81
0 -1 1702 -1 1701 198 172 198 173 3 -214 2 -214 360 0 360 0 0 -80 0 -80
-360 0 -360 0 0 -218 0 -217 90 -90 90 -89 55 54 55 54 -65 66 -65 66 0 107 0
107 280 0 280 0 0 -103 0 -103 -65 -64 c-36 -35 -65 -68 -65 -73 0 -4 24 -30
53 -57 l52 -49 93 92 92 92 0 720 c0 398 -5 754 -10 795 -24 190 -162 340
-348 379 -32 7 -170 11 -355 11 l-302 0 -484 -410z m707 233 c-19 -21 -56 -95
-71 -138 -6 -16 -13 -106 -16 -199 l-6 -170 -234 -204 -233 -203 -33 49 c-18
27 -57 70 -87 97 -53 48 -195 125 -231 125 -10 0 -17 5 -15 11 2 6 172 154
378 329 l375 318 94 1 c89 1 93 0 79 -16z m444 1 c61 -20 123 -75 156 -138 38
-72 38 -178 -1 -252 -88 -172 -317 -206 -451 -68 -57 58 -71 98 -71 194 0 97
14 136 72 196 75 77 191 104 295 68z m-248 -673 c134 -50 281 -32 404 49 l32
22 0 -191 0 -191 -280 0 -280 0 0 190 0 189 36 -24 c19 -13 59 -33 88 -44z
m-1122 -132 c314 -105 375 -522 103 -709 -114 -79 -276 -92 -397 -32 -83 40
-153 111 -192 192 -29 60 -31 73 -31 170 0 97 2 110 31 170 89 185 295 274
486 209z"/>
<path d="M1923 4270 c-67 -27 -52 -132 22 -146 74 -14 118 88 59 135 -29 23
-46 25 -81 11z"/>
<path d="M523 3350 c-67 -27 -52 -132 22 -146 74 -14 118 88 59 135 -29 23
-46 25 -81 11z"/>
<path d="M3071 4189 c-133 -26 -247 -117 -309 -247 l-37 -77 -3 -790 -3 -790
91 -90 90 -89 55 54 55 54 -65 66 -65 66 0 107 0 107 280 0 280 0 0 -102 0
-102 -67 -68 -67 -67 49 -53 c27 -29 50 -55 52 -57 2 -3 46 37 98 89 l95 95 0
212 0 213 -360 0 -360 0 0 80 0 80 360 0 360 0 2 212 3 212 200 -174 200 -174
-3 -673 -3 -673 81 0 80 0 0 416 0 417 33 -27 c58 -47 152 -95 220 -113 l67
-18 0 -267 0 -268 80 0 80 0 0 268 0 268 53 13 c71 19 162 65 220 113 l47 39
0 -424 0 -424 65 -6 c36 -4 72 -4 81 0 13 5 15 78 12 667 -4 730 -3 711 -71
840 -45 86 -146 185 -234 230 -40 20 -79 36 -87 36 -8 0 -236 187 -506 415
l-492 415 -306 -1 c-169 -1 -327 -5 -351 -10z m181 -165 c61 -20 123 -75 156
-138 38 -72 38 -178 -1 -252 -88 -172 -317 -206 -451 -68 -49 50 -69 99 -74
176 -5 76 9 126 49 183 71 99 203 140 321 99z m803 -305 c209 -176 381 -324
383 -329 2 -4 -13 -11 -33 -14 -46 -9 -151 -64 -205 -107 -23 -19 -62 -60 -86
-92 -23 -32 -46 -58 -50 -59 -3 0 -109 89 -235 198 l-229 199 0 110 c-1 175
-14 249 -59 338 l-39 77 87 0 86 0 380 -321z m-1048 -369 c129 -49 279 -30
401 50 l32 22 0 -191 0 -191 -280 0 -280 0 0 190 0 190 39 -25 c21 -14 61 -34
88 -45z m1675 -131 c314 -105 375 -522 103 -709 -114 -79 -276 -92 -397 -32
-83 40 -153 111 -192 192 -29 60 -31 73 -31 170 0 97 2 110 31 170 89 185 295
274 486 209z"/>
<path d="M3123 3830 c-67 -27 -52 -132 22 -146 74 -14 118 88 59 135 -29 23
-46 25 -81 11z"/>
<path d="M4523 2910 c-67 -27 -52 -132 22 -146 74 -14 118 88 59 135 -29 23
-46 25 -81 11z"/>
<path d="M1280 2000 l0 -80 320 0 320 0 0 80 0 80 -320 0 -320 0 0 -80z"/>
<path d="M2080 1760 l0 -320 80 0 80 0 0 240 0 240 88 0 c338 0 744 -168 1205
-498 42 -30 77 -58 77 -62 0 -4 -27 -19 -60 -34 -125 -57 -106 -56 -1232 -56
l-1038 0 0 -75 0 -75 398 -2 397 -3 5 -190 c5 -183 6 -192 33 -247 34 -69 118
-149 184 -174 44 -17 93 -19 636 -22 l587 -3 0 336 c0 265 3 335 13 335 21 0
155 68 203 102 l44 32 163 -18 c427 -45 728 -150 983 -341 l31 -23 -36 -254
-36 -253 -60 -12 c-33 -6 -81 -15 -107 -18 l-47 -7 10 34 c18 59 12 197 -11
270 -42 136 -156 260 -289 314 -94 38 -241 45 -338 16 -160 -49 -280 -168
-334 -330 -27 -80 -29 -219 -6 -295 l15 -47 -989 0 c-544 0 -989 2 -989 5 0 2
7 30 15 62 44 170 -9 357 -139 481 -88 84 -213 142 -308 142 l-38 0 0 -74 0
-73 54 -11 c110 -22 206 -94 255 -190 44 -87 45 -212 1 -306 -47 -98 -162
-182 -266 -194 l-44 -5 0 -78 c0 -89 -5 -85 85 -68 78 14 167 56 232 107 l52
42 1092 0 1091 0 44 -39 c58 -51 141 -90 234 -109 146 -30 320 21 433 126 l52
49 217 33 218 34 5 30 c12 66 95 660 95 675 0 9 -37 44 -83 77 -301 224 -592
331 -1032 379 -83 9 -169 18 -192 21 -29 4 -60 19 -105 53 -303 228 -633 413
-893 499 -200 67 -364 92 -597 92 l-138 0 0 -320z m1280 -880 l0 -240 -489 0
c-322 0 -499 4 -518 11 -15 5 -41 22 -56 37 -53 50 -57 67 -57 257 l0 175 560
0 560 0 0 -240z m915 -35 c110 -29 190 -97 237 -202 17 -37 22 -68 23 -133 0
-77 -3 -92 -33 -152 -36 -74 -95 -132 -170 -169 -39 -20 -63 -24 -142 -24 -85
0 -101 3 -153 29 -68 35 -125 93 -163 168 -25 46 -28 65 -29 143 0 77 4 98 27
147 45 96 127 166 228 194 62 17 106 17 175 -1z"/>
<path d="M4523 1590 c-67 -27 -52 -132 22 -146 74 -14 118 88 59 135 -29 23
-46 25 -81 11z"/>
<path d="M523 1510 c-67 -27 -52 -132 22 -146 74 -14 118 88 59 135 -29 23
-46 25 -81 11z"/>
<path d="M320 600 l0 -600 80 0 80 0 0 520 0 520 80 0 80 0 0 -520 0 -520 80
0 80 0 0 600 0 600 -240 0 -240 0 0 -600z"/>
</g>
</svg>
